<svg width="3300" height="1247" viewBox="0 0 3300 1247" fill="none" xmlns="http://www.w3.org/2000/svg">
<path d="M636.822 491.661C637.625 491.659 638.395 491.977 638.963 492.543C639.531 493.11 639.851 493.879 639.851 494.682V620.195C639.851 679.681 602.57 709 553.41 709C504.258 709 466.97 679.681 466.97 620.195V494.63C466.968 493.825 467.287 493.053 467.857 492.484C468.427 491.916 469.201 491.598 470.006 491.602H499.203C500.871 491.602 502.224 492.955 502.224 494.623V617.985C502.224 659.496 523.919 675.96 553.565 675.96C583.219 675.96 604.663 659.496 604.663 617.985V494.63C604.661 493.828 604.978 493.058 605.545 492.49C606.112 491.922 606.882 491.602 607.684 491.602L636.822 491.661ZM1148.58 598.471C1148.28 661.308 1100.31 708.941 1037.7 708.941C975.097 708.941 926.821 661.316 926.821 598.471C926.821 535.626 975.097 488 1037.69 488C1100.3 488 1148.27 535.626 1148.57 598.471H1148.58ZM961.648 598.471C961.648 643.009 994.33 675.96 1037.7 675.96C1081.07 675.96 1113.42 643.009 1113.42 598.463C1113.42 553.932 1080.74 520.981 1037.7 520.981C994.662 520.981 961.648 553.932 961.648 598.471ZM1451.99 705.28H1421.71C1420.74 705.25 1419.84 704.758 1419.29 703.956C1418.75 703.154 1418.62 702.14 1418.95 701.228L1498.93 494.807C1499.6 493.088 1501.25 491.956 1503.09 491.956H1540.92C1542.76 491.948 1544.41 493.081 1545.07 494.799L1625.11 701.339C1625.44 702.251 1625.31 703.267 1624.77 704.07C1624.22 704.872 1623.32 705.364 1622.35 705.39H1592.01C1590.77 705.374 1589.67 704.607 1589.22 703.453L1524.71 533.504C1524.23 532.407 1523.14 531.699 1521.94 531.699C1520.74 531.699 1519.65 532.407 1519.17 533.504L1454.66 703.453C1454.2 704.522 1453.16 705.23 1451.99 705.272V705.28ZM241.215 705.28H210.928C209.96 705.248 209.066 704.754 208.522 703.953C207.978 703.152 207.851 702.139 208.179 701.228L288.164 494.807C288.818 493.085 290.471 491.95 292.313 491.956H330.139C331.981 491.956 333.625 493.09 334.288 494.799L414.214 701.339C414.546 702.251 414.419 703.267 413.873 704.07C413.327 704.872 412.428 705.364 411.458 705.39H381.17C379.933 705.374 378.83 704.607 378.385 703.453L313.905 533.379C313.42 532.281 312.334 531.574 311.134 531.574C309.934 531.574 308.847 532.281 308.363 533.379L243.853 703.328C243.431 704.437 242.4 705.197 241.215 705.272V705.28ZM1363.1 700.469L1303.11 623.915C1336.97 617.506 1356.77 594.655 1356.77 559.619C1356.77 519.375 1330.54 491.963 1284.09 491.963H1200.49C1198.03 491.963 1196.04 493.955 1196.04 496.413C1196.04 503.967 1199.05 511.211 1204.39 516.551C1209.74 521.891 1216.99 524.889 1224.54 524.885H1280.54C1308.59 524.885 1322 539.198 1322 559.921C1322 580.651 1308.88 595.266 1280.54 595.266H1200.49C1198.03 595.266 1196.04 597.254 1196.04 599.708V702.311C1196.04 703.983 1197.4 705.339 1199.07 705.339H1227.6C1229.27 705.339 1230.62 703.987 1230.62 702.318V625.705H1263.58L1315.68 693.626C1321.28 700.952 1329.98 705.25 1339.21 705.25H1360.89C1361.98 705.162 1362.93 704.493 1363.39 703.501C1363.85 702.51 1363.74 701.348 1363.1 700.462V700.469ZM878.722 700.469L818.73 623.915C852.591 617.506 872.429 594.655 872.429 559.619C872.429 519.375 846.195 491.963 799.74 491.963H716.114C713.656 491.963 711.663 493.955 711.663 496.413C711.684 512.135 724.432 524.873 740.16 524.885H796.166C824.242 524.885 837.654 539.198 837.654 559.921C837.654 580.651 824.537 595.266 796.166 595.266H716.114C713.659 595.266 711.667 597.254 711.663 599.708V702.311C711.663 703.983 713.019 705.339 714.692 705.339H743.255C744.924 705.339 746.276 703.987 746.276 702.318V625.705H779.202L831.302 693.626C836.916 700.94 845.609 705.235 854.832 705.25H876.512C877.601 705.162 878.558 704.493 879.016 703.501C879.474 702.51 879.362 701.348 878.722 700.462V700.469Z" fill="white"/>
<path d="M1805.75 535.192C1806.07 534.488 1806.78 534.039 1807.56 534.039H1825.41C1826.87 534.039 1827.84 535.559 1827.22 536.885L1736.98 730.112C1736.65 730.816 1735.94 731.266 1735.17 731.266H1717.2C1715.74 731.266 1714.77 729.745 1715.39 728.418L1805.75 535.192Z" fill="#5DEB5A"/>
<path d="M1842.49 580.206C1842.2 578.951 1843.15 577.75 1844.44 577.75H1861.63C1862.57 577.75 1863.38 578.408 1863.58 579.329L1884.38 675.855C1884.82 677.898 1887.71 677.981 1888.26 675.967L1904.44 617.537C1904.68 616.67 1905.47 616.07 1906.37 616.07H1921.73C1922.62 616.07 1923.41 616.667 1923.65 617.531L1940.05 676.028C1940.61 678.037 1943.49 677.949 1943.93 675.909L1964.74 579.329C1964.94 578.408 1965.75 577.75 1966.69 577.75H1983.89C1985.17 577.75 1986.13 578.951 1985.83 580.206L1956.07 707.456C1955.85 708.36 1955.05 709 1954.12 709H1936.58C1935.69 709 1934.91 708.413 1934.66 707.56L1916.03 643.651C1915.47 641.73 1912.74 641.732 1912.19 643.654L1893.66 707.557C1893.41 708.412 1892.63 709 1891.74 709H1874.2C1873.28 709 1872.47 708.36 1872.26 707.456L1842.49 580.206Z" fill="#5DEB5A"/>
<path d="M2066.91 592.867C2055.97 592.867 2047.69 597.125 2042.07 605.641C2036.44 614.156 2033.63 626.773 2033.63 643.492C2033.63 660.133 2036.44 672.75 2042.07 681.344C2047.69 689.859 2055.97 694.117 2066.91 694.117C2077.93 694.117 2086.25 689.859 2091.87 681.344C2097.5 672.75 2100.31 660.133 2100.31 643.492C2100.31 626.773 2097.5 614.156 2091.87 605.641C2086.25 597.125 2077.93 592.867 2066.91 592.867ZM2066.91 574.586C2085.11 574.586 2099.02 580.484 2108.63 592.281C2118.32 604.078 2123.16 621.148 2123.16 643.492C2123.16 665.914 2118.36 683.023 2108.75 694.82C2099.14 706.539 2085.19 712.398 2066.91 712.398C2048.71 712.398 2034.8 706.539 2025.19 694.82C2015.58 683.023 2010.78 665.914 2010.78 643.492C2010.78 621.148 2015.58 604.078 2025.19 592.281C2034.8 580.484 2048.71 574.586 2066.91 574.586Z" fill="#5DEB5A"/>
<path d="M2256.89 600.725C2256.89 602.39 2254.95 603.344 2253.57 602.414C2250.03 600.033 2246.45 598.218 2242.82 596.969C2238.06 595.328 2232.82 594.508 2227.12 594.508C2213.68 594.508 2203.41 598.727 2196.3 607.164C2189.19 615.602 2185.64 627.789 2185.64 643.727V707C2185.64 708.105 2184.74 709 2183.64 709H2165.96C2164.85 709 2163.96 708.105 2163.96 707V579.75C2163.96 578.645 2164.85 577.75 2165.96 577.75H2183.64C2184.74 577.75 2185.64 578.645 2185.64 579.75V592.693C2185.64 594.908 2189.27 595.728 2190.49 593.876C2193.63 589.092 2197.52 585.162 2202.16 582.086C2209.66 577.086 2218.53 574.586 2228.76 574.586C2234.07 574.586 2239.03 575.25 2243.64 576.578C2247.93 577.812 2252.04 579.688 2255.99 582.204C2256.55 582.564 2256.89 583.191 2256.89 583.859V600.725Z" fill="#5DEB5A"/>
<path d="M2289 528.656C2289 527.552 2289.89 526.656 2291 526.656H2309.26C2310.37 526.656 2311.26 527.552 2311.26 528.656V627.54C2311.26 629.304 2313.38 630.204 2314.65 628.981L2367.29 578.309C2367.66 577.95 2368.16 577.75 2368.67 577.75H2389.13C2390.94 577.75 2391.82 579.948 2390.52 581.195L2343.7 625.992C2342.98 626.685 2342.88 627.808 2343.47 628.617L2399.88 705.82C2400.84 707.142 2399.9 709 2398.26 709H2376.86C2376.22 709 2375.61 708.689 2375.24 708.165L2328.65 643.125C2327.95 642.141 2326.54 642.004 2325.65 642.834L2311.89 655.791C2311.49 656.169 2311.26 656.695 2311.26 657.247V707C2311.26 708.105 2310.37 709 2309.26 709H2291C2289.89 709 2289 708.105 2289 707V528.656Z" fill="#5DEB5A"/>
<path d="M2517.94 581.818C2518.69 582.117 2519.18 582.849 2519.18 583.659V599.935C2519.18 601.478 2517.5 602.445 2516.14 601.719C2510.97 598.961 2505.77 596.83 2500.54 595.328C2494.29 593.531 2487.93 592.633 2481.44 592.633C2471.68 592.633 2464.37 594.234 2459.53 597.438C2454.76 600.562 2452.38 605.367 2452.38 611.852C2452.38 617.711 2454.18 622.086 2457.77 624.977C2461.36 627.867 2470.31 630.68 2484.61 633.414L2493.28 635.055C2503.98 637.086 2512.07 641.148 2517.54 647.242C2523.08 653.336 2525.86 661.266 2525.86 671.031C2525.86 684 2521.25 694.156 2512.03 701.5C2502.81 708.766 2490 712.398 2473.59 712.398C2467.11 712.398 2460.31 711.695 2453.2 710.289C2446.48 709.035 2439.25 707.153 2431.49 704.645C2430.67 704.379 2430.11 703.612 2430.11 702.749V685.208C2430.11 683.711 2431.7 682.743 2433.04 683.4C2440.03 686.818 2446.75 689.453 2453.2 691.305C2460.54 693.336 2467.5 694.352 2474.06 694.352C2483.59 694.352 2490.97 692.438 2496.21 688.609C2501.44 684.703 2504.06 679.273 2504.06 672.32C2504.06 662.32 2494.49 655.406 2475.35 651.578L2474.41 651.344L2466.32 649.703C2453.9 647.281 2444.84 643.219 2439.14 637.516C2433.43 631.734 2430.58 623.883 2430.58 613.961C2430.58 601.383 2434.84 591.695 2443.36 584.898C2451.87 578.023 2464.02 574.586 2479.8 574.586C2486.83 574.586 2493.59 575.25 2500.07 576.578C2506.13 577.746 2512.08 579.492 2517.94 581.818Z" fill="#5DEB5A"/>
<path d="M2589.34 699.173C2588.01 697.562 2584.91 698.435 2584.91 700.519V756.922C2584.91 758.026 2584.01 758.922 2582.91 758.922H2565.23C2564.12 758.922 2563.23 758.026 2563.23 756.922V579.75C2563.23 578.645 2564.12 577.75 2565.23 577.75H2582.91C2584.01 577.75 2584.91 578.645 2584.91 579.75V586.773C2584.91 588.838 2587.92 589.705 2589.24 588.115C2592.08 584.684 2595.4 581.893 2599.2 579.742C2605.22 576.305 2612.13 574.586 2619.95 574.586C2635.81 574.586 2648.23 580.719 2657.21 592.984C2666.27 605.25 2670.81 622.242 2670.81 643.961C2670.81 665.289 2666.27 682.047 2657.21 694.234C2648.15 706.344 2635.73 712.398 2619.95 712.398C2611.98 712.398 2604.99 710.719 2598.97 707.359C2595.27 705.22 2592.06 702.492 2589.34 699.173ZM2648.19 643.492C2648.19 626.773 2645.53 614.156 2640.22 605.641C2634.99 597.125 2627.17 592.867 2616.78 592.867C2606.31 592.867 2598.38 597.164 2592.99 605.758C2587.6 614.273 2584.91 626.852 2584.91 643.492C2584.91 660.055 2587.6 672.633 2592.99 681.227C2598.38 689.82 2606.31 694.117 2616.78 694.117C2627.17 694.117 2634.99 689.859 2640.22 681.344C2645.53 672.828 2648.19 660.211 2648.19 643.492Z" fill="#5DEB5A"/>
<path d="M2768.04 643.023H2760.89C2748.31 643.023 2738.82 645.25 2732.41 649.703C2726.08 654.078 2722.92 660.641 2722.92 669.391C2722.92 677.281 2725.3 683.414 2730.07 687.789C2734.83 692.164 2741.44 694.352 2749.87 694.352C2761.75 694.352 2771.08 690.25 2777.88 682.047C2784.68 673.766 2788.11 662.359 2788.19 647.828V645.023C2788.19 643.919 2787.3 643.023 2786.19 643.023H2768.04ZM2809.87 634.117V707C2809.87 708.105 2808.98 709 2807.87 709H2790.19C2789.09 709 2788.19 708.105 2788.19 707V696.873C2788.19 694.836 2785.33 693.996 2784.07 695.593C2780.25 700.418 2775.81 704.183 2770.73 706.891C2763.78 710.562 2755.3 712.398 2745.3 712.398C2731.94 712.398 2721.28 708.648 2713.31 701.148C2705.34 693.57 2701.36 683.453 2701.36 670.797C2701.36 656.188 2706.24 645.094 2716.01 637.516C2725.85 629.938 2740.26 626.148 2759.25 626.148H2786.19C2787.3 626.148 2788.19 625.253 2788.19 624.148V622.75C2788.11 612.281 2785.46 604.703 2780.22 600.016C2774.99 595.25 2766.63 592.867 2755.15 592.867C2747.8 592.867 2740.38 593.922 2732.88 596.031C2726.44 597.843 2720.14 600.375 2713.99 603.628C2712.63 604.346 2710.97 603.378 2710.97 601.843V585.103C2710.97 584.274 2711.48 583.53 2712.25 583.24C2719.76 580.437 2726.94 578.334 2733.82 576.93C2741.16 575.367 2748.27 574.586 2755.15 574.586C2766.01 574.586 2775.26 576.188 2782.92 579.391C2790.65 582.594 2796.9 587.398 2801.67 593.805C2804.64 597.711 2806.75 602.555 2808 608.336C2809.25 614.039 2809.87 622.633 2809.87 634.117Z" fill="#5DEB5A"/>
<path d="M2944.92 701.169C2944.92 701.882 2944.54 702.542 2943.92 702.891C2938.45 705.964 2932.8 708.274 2926.99 709.82C2920.89 711.539 2914.64 712.398 2908.24 712.398C2887.92 712.398 2872.03 706.305 2860.54 694.117C2849.14 681.93 2843.43 665.055 2843.43 643.492C2843.43 621.93 2849.14 605.055 2860.54 592.867C2872.03 580.68 2887.92 574.586 2908.24 574.586C2914.56 574.586 2920.74 575.406 2926.75 577.047C2932.43 578.596 2938.15 580.946 2943.9 584.096C2944.53 584.443 2944.92 585.11 2944.92 585.832V602.822C2944.92 604.549 2942.86 605.483 2941.5 604.413C2936.92 600.796 2932.32 598.08 2927.69 596.266C2921.99 594 2915.5 592.867 2908.24 592.867C2894.72 592.867 2884.33 597.242 2877.06 605.992C2869.8 614.742 2866.17 627.242 2866.17 643.492C2866.17 659.664 2869.8 672.164 2877.06 680.992C2884.41 689.742 2894.8 694.117 2908.24 694.117C2915.74 694.117 2922.46 692.984 2928.39 690.719C2932.99 688.904 2937.33 686.34 2941.41 683.026C2942.78 681.917 2944.92 682.85 2944.92 684.609V701.169Z" fill="#5DEB5A"/>
<path d="M3091.64 632.594V641.141C3091.64 642.245 3090.74 643.141 3089.64 643.141H2998.94C2998.56 643.141 2998.24 643.455 2998.24 643.844V643.844C2997.62 661.734 3001.01 674.586 3008.44 682.398C3015.94 690.211 3026.48 694.117 3040.08 694.117C3046.95 694.117 3054.14 693.023 3061.64 690.836C3068.27 688.902 3075.3 686.083 3082.72 682.378C3084.07 681.707 3085.66 682.675 3085.66 684.178V700.978C3085.66 701.79 3085.17 702.522 3084.42 702.824C3076.66 705.931 3069.14 708.263 3061.87 709.82C3054.3 711.539 3046.95 712.398 3039.84 712.398C3019.45 712.398 3003.51 706.305 2992.03 694.117C2980.55 681.852 2974.8 664.977 2974.8 643.492C2974.8 622.555 2980.43 605.836 2991.68 593.336C3002.93 580.836 3017.93 574.586 3036.68 574.586C3053.4 574.586 3066.56 580.25 3076.17 591.578C3085.86 602.906 3091.01 616.578 3091.64 632.594ZM3067.86 626.269C3069.05 626.267 3069.98 625.24 3069.8 624.069C3068.58 615.935 3065.35 608.854 3060.12 602.828C3054.49 596.188 3046.37 592.867 3035.74 592.867C3025.35 592.867 3016.8 596.305 3010.08 603.18C3003.92 609.478 3000.32 616.498 2999.28 624.24C2999.13 625.393 3000.05 626.381 3001.22 626.379L3067.86 626.269Z" fill="#5DEB5A"/>
</svg>
